<svg xmlns="http://www.w3.org/2000/svg" width="1em" height="1em" viewBox="0 0 24 24"><path fill="currentColor" d="m4.72 17.962l-1.44-5.277q-.055-.243.044-.527q.1-.285.376-.377l1.3-.45V7q0-.69.463-1.153t1.152-.462H10V3.192q0-.348.23-.578q.23-.23.578-.23h2.384q.348 0 .578.23q.23.23.23.578v2.193h3.385q.69 0 1.152.462Q19 6.31 19 7v4.33l1.3.45q.333.124.452.396q.12.272.044.509l-1.515 5.277q-.827-.27-1.456-.744t-1.233-1.093q-.236-.256-.582-.256q-.347 0-.583.275q-.68.754-1.512 1.305Q13.085 18 12 18q-.27 0-.494-.025q-.225-.025-.45-.094q-.725-.189-1.327-.66q-.602-.471-1.171-1.086q-.22-.258-.56-.268q-.342-.01-.561.248q-.585.637-1.25 1.107q-.666.47-1.468.74M12 22q-1.025 0-2.037-.25T8 21q-.95.5-1.95.75T4 22H3q-.213 0-.357-.143q-.143-.144-.143-.357t.143-.357Q2.787 21 3 21h1q.938 0 1.848-.27q.91-.268 1.723-.763q.212-.13.429-.13t.429.13q.608.389 1.31.614q.703.225 1.411.319q.2.025.425.038t.425.012q.938 0 1.848-.244q.91-.244 1.723-.739q.212-.13.429-.13t.429.13q.813.5 1.713.767T20 21h1q.213 0 .357.143q.143.144.143.357t-.143.357Q21.213 22 21 22h-1q-1.05 0-2.05-.25T16 21q-.95.5-1.963.75T12 22M6 10.988L11.49 9.2q.243-.08.51-.08t.51.08L18 10.988V7q0-.27-.173-.442t-.442-.173H6.615q-.269 0-.442.173T6 7zM12 17q.865 0 1.563-.528q.699-.528 1.275-1.193q.466-.535 1.168-.522q.702.012 1.161.547q.333.371.685.71q.352.34.798.598l1.1-3.962L12 10.1l-7.762 2.55L5.35 16.6q.44-.258.812-.598q.37-.34.703-.73q.472-.516 1.138-.529t1.132.503q.446.49.923.953t1.092.676q.2.075.413.1T12 17m-.006-3.45"/></svg>