<svg xmlns="http://www.w3.org/2000/svg" width="1em" height="1em" viewBox="0 0 24 24"><g fill="none" stroke="currentColor" stroke-width="1.5"><path d="M4 10c0-3.771 0-5.657 1.172-6.828C6.343 2 8.229 2 12 2c3.771 0 5.657 0 6.828 1.172C20 4.343 20 6.229 20 10v2c0 3.771 0 5.657-1.172 6.828C17.657 20 15.771 20 12 20c-3.771 0-5.657 0-6.828-1.172C4 17.657 4 15.771 4 12z"/><path stroke-linecap="round" stroke-linejoin="round" d="M4 13h16m-4.5 3H17M7 16h1.5"/><path stroke-linecap="round" stroke-linejoin="round" d="m7 20l-1 2m11-2l1 2M10 2v.5a2 2 0 1 0 4 0V2" opacity=".5"/></g></svg>